<?xml version="1.0" encoding="UTF-8" standalone="no"?>
<!-- Created with Inkscape (http://www.inkscape.org/) -->

<svg
   version="1.1"
   id="svg1"
   viewBox="0 0 2829.3333 2829.3333"
   xmlns:inkscape="http://www.inkscape.org/namespaces/inkscape"
   xmlns:sodipodi="http://sodipodi.sourceforge.net/DTD/sodipodi-0.dtd"
   xmlns="http://www.w3.org/2000/svg"
   xmlns:svg="http://www.w3.org/2000/svg">
  <sodipodi:namedview
     id="namedview1"
     pagecolor="#ffffff"
     bordercolor="#000000"
     borderopacity="0.25"
     inkscape:showpageshadow="2"
     inkscape:pageopacity="0.0"
     inkscape:pagecheckerboard="0"
     inkscape:deskcolor="#d1d1d1">
    <inkscape:page
       x="0"
       y="0"
       inkscape:label="1"
       id="page1"
       width="800"
       height="800"
       margin="0"
       bleed="0" />
  </sodipodi:namedview>
  <g
     id="g1"
     inkscape:groupmode="layer"
     inkscape:label="1">
    <g
       id="group-R5">
      <path
         id="path2"
         d="m 14584.1,17242.5 h -4309 c -183,0 -331.41,-148.2 -331.41,-331.4 0,-183.2 148.41,-331.5 331.41,-331.5 h 4309 c 365.6,0 662.9,-297.5 662.9,-662.9 v -662.9 H 5966.21 v 662.9 c 0,365.4 297.32,662.9 662.92,662.9 h 2320.19 c 183.03,0 331.46,148.3 331.46,331.5 0,183.2 -148.43,331.4 -331.46,331.4 H 6629.13 c -731.06,0 -1325.83,-594.6 -1325.83,-1325.8 v -994.4 c 0,-183.2 148.43,-331.4 331.46,-331.4 h 9943.64 c 183.1,0 331.5,148.2 331.5,331.4 v 994.4 c 0,731.2 -594.8,1325.8 -1325.8,1325.8"
         style="fill:#595959;fill-opacity:1;fill-rule:nonzero;stroke:none"
         transform="matrix(0.13333333,0,0,-0.13333333,0,2829.3333)" />
      <path
         id="path3"
         d="m 15578.4,13928 c -183,0 -331.4,-148.3 -331.4,-331.5 V 5310.1 c 0,-365.4 -297.3,-662.9 -662.9,-662.9 H 6629.13 c -365.6,0 -662.92,297.5 -662.92,662.9 v 8286.4 c 0,183.2 -148.42,331.5 -331.45,331.5 -183.03,0 -331.46,-148.3 -331.46,-331.5 V 5310.1 c 0,-731.2 594.77,-1325.8 1325.83,-1325.8 h 7954.97 c 731,0 1325.8,594.6 1325.8,1325.8 v 8286.4 c 0,183.2 -148.4,331.5 -331.5,331.5"
         style="fill:#595959;fill-opacity:1;fill-rule:nonzero;stroke:none"
         transform="matrix(0.13333333,0,0,-0.13333333,0,2829.3333)" />
      <path
         id="path4"
         d="m 14584.1,15916.7 c 0,183.1 -148.4,331.5 -331.5,331.5 -183,0 -331.4,-148.4 -331.4,-331.5 0,-183 148.4,-331.5 331.4,-331.5 183.1,0 331.5,148.5 331.5,331.5"
         style="fill:#595959;fill-opacity:1;fill-rule:nonzero;stroke:none"
         transform="matrix(0.13333333,0,0,-0.13333333,0,2829.3333)" />
      <path
         id="path5"
         d="m 13258.3,15916.7 c 0,183.1 -148.4,331.5 -331.5,331.5 -183,0 -331.5,-148.4 -331.5,-331.5 0,-183 148.5,-331.5 331.5,-331.5 183.1,0 331.5,148.5 331.5,331.5"
         style="fill:#595959;fill-opacity:1;fill-rule:nonzero;stroke:none"
         transform="matrix(0.13333333,0,0,-0.13333333,0,2829.3333)" />
      <path
         id="path6"
         d="m 12979.1,7785.3 c 156.1,-95.4 360.2,-46.6 455.7,109.5 318.2,518.8 486.4,1115 486.4,1724.2 0,1827.6 -1486.9,3314.6 -3314.6,3314.6 -1827.71,0 -3314.56,-1487 -3314.56,-3314.6 0,-1827.5 1486.85,-3314.5 3314.56,-3314.5 642.9,0 1265.9,184.8 1802,534.4 153.2,100 196.5,305.5 96.4,458.6 -99.7,153.5 -305.5,196.2 -458.7,96.8 -428,-279.3 -925.8,-426.9 -1439.7,-426.9 -1462.09,0 -2651.65,1189.5 -2651.65,2651.6 0,1462.1 1189.56,2651.7 2651.65,2651.7 1462.1,0 2651.7,-1189.6 2651.7,-2651.7 0,-486.8 -134.4,-963.3 -388.6,-1377.9 -95.7,-156 -46.8,-360 109.4,-455.8"
         style="fill:#bfbfbf;fill-opacity:1;fill-rule:nonzero;stroke:none"
         transform="matrix(0.13333333,0,0,-0.13333333,0,2829.3333)" />
      <path
         id="path7"
         d="m 11835.3,10847.7 c -129.5,129.5 -339.2,129.5 -468.7,0 l -760,-760 -760.03,760 c -129.46,129.5 -339.21,129.5 -468.68,0 -129.5,-129.4 -129.5,-339.2 0,-468.6 L 10137.9,9619 9377.89,8859 c -129.5,-129.5 -129.5,-339.2 0,-468.7 64.74,-64.7 149.52,-97.1 234.34,-97.1 84.82,0 169.61,32.4 234.34,97.1 l 760.03,760 760,-760 c 64.8,-64.7 149.6,-97.1 234.4,-97.1 84.8,0 169.6,32.4 234.3,97.1 129.5,129.5 129.5,339.2 0,468.7 l -760,760 760,760.1 c 129.5,129.4 129.5,339.2 0,468.6"
         style="fill:#bfbfbf;fill-opacity:1;fill-rule:nonzero;stroke:none"
         transform="matrix(0.13333333,0,0,-0.13333333,0,2829.3333)" />
      <path
         id="path8"
         d="M 994.367,11276.3 H 4308.93 c 183.03,0 331.46,148.3 331.46,331.5 0,183.2 -148.43,331.4 -331.46,331.4 h -2983.1 v 662.9 c 0,365.5 297.31,663 662.91,663 h 2320.19 c 183.03,0 331.46,148.2 331.46,331.4 0,183.2 -148.43,331.5 -331.46,331.5 H 1988.74 c -731.06,0 -1325.826,-594.6 -1325.826,-1325.9 v -994.3 c 0,-183.2 148.426,-331.5 331.453,-331.5"
         style="fill:#595959;fill-opacity:1;fill-rule:nonzero;stroke:none"
         transform="matrix(0.13333333,0,0,-0.13333333,0,2829.3333)" />
      <path
         id="path9"
         d="m 10938.1,3321.4 c -183.1,0 -331.5,-148.3 -331.5,-331.5 v -994.4 c 0,-365.4 -297.3,-662.9 -662.91,-662.9 H 7292.04 c -183.03,0 -331.46,-148.2 -331.46,-331.4 0,-183.2 148.43,-331.501 331.46,-331.501 h 2651.65 c 731.01,0 1325.81,594.601 1325.81,1325.801 v 994.4 c 0,183.2 -148.4,331.5 -331.4,331.5"
         style="fill:#bfbfbf;fill-opacity:1;fill-rule:nonzero;stroke:none"
         transform="matrix(0.13333333,0,0,-0.13333333,0,2829.3333)" />
      <path
         id="path10"
         d="M 5966.21,1332.6 H 1988.74 c -365.6,0 -662.91,297.5 -662.91,662.9 v 8286.4 c 0,183.2 -148.43,331.5 -331.463,331.5 -183.027,0 -331.453,-148.3 -331.453,-331.5 V 1995.5 c 0,-731.2 594.766,-1325.801 1325.826,-1325.801 h 3977.47 c 183.03,0 331.46,148.301 331.46,331.501 0,183.2 -148.43,331.4 -331.46,331.4"
         style="fill:#bfbfbf;fill-opacity:1;fill-rule:nonzero;stroke:none"
         transform="matrix(0.13333333,0,0,-0.13333333,0,2829.3333)" />
      <path
         id="path11"
         d="m 19887.4,18568.4 h -9280.8 v 662.9 c 0,365.4 297.3,662.9 662.9,662.9 h 7955 c 365.6,0 662.9,-297.5 662.9,-662.9 z m -662.9,1988.7 h -7955 c -731,0 -1325.81,-594.6 -1325.81,-1325.8 v -994.4 c 0,-183.2 148.41,-331.5 331.41,-331.5 h 9943.7 c 183.1,0 331.5,148.3 331.5,331.5 v 994.4 c 0,731.2 -594.8,1325.8 -1325.8,1325.8"
         style="fill:#595959;fill-opacity:1;fill-rule:nonzero;stroke:none"
         transform="matrix(0.13333333,0,0,-0.13333333,0,2829.3333)" />
      <path
         id="path12"
         d="m 20218.8,17242.5 c -183,0 -331.4,-148.2 -331.4,-331.4 V 8624.7 c 0,-365.5 -297.3,-663 -662.9,-663 h -2320.2 c -183.1,0 -331.5,-148.2 -331.5,-331.4 0,-183.2 148.4,-331.5 331.5,-331.5 h 2320.2 c 731,0 1325.8,594.6 1325.8,1325.9 v 8286.4 c 0,183.2 -148.4,331.4 -331.5,331.4"
         style="fill:#bfbfbf;fill-opacity:1;fill-rule:nonzero;stroke:none"
         transform="matrix(0.13333333,0,0,-0.13333333,0,2829.3333)" />
      <path
         id="path13"
         d="m 18893,19562.7 c -183,0 -331.4,-148.4 -331.4,-331.4 0,-183.1 148.4,-331.5 331.4,-331.5 183.1,0 331.5,148.4 331.5,331.5 0,183 -148.4,331.4 -331.5,331.4"
         style="fill:#595959;fill-opacity:1;fill-rule:nonzero;stroke:none"
         transform="matrix(0.13333333,0,0,-0.13333333,0,2829.3333)" />
      <path
         id="path14"
         d="m 17567.2,19562.7 c -183,0 -331.5,-148.4 -331.5,-331.4 0,-183.1 148.5,-331.5 331.5,-331.5 183,0 331.4,148.4 331.4,331.5 0,183 -148.4,331.4 -331.4,331.4"
         style="fill:#595959;fill-opacity:1;fill-rule:nonzero;stroke:none"
         transform="matrix(0.13333333,0,0,-0.13333333,0,2829.3333)" />
      <path
         id="path15"
         d="m 16904.3,15585.2 h 1657.3 c 183,0 331.4,148.3 331.4,331.5 0,183.2 -148.4,331.5 -331.4,331.5 h -1657.3 c -183.1,0 -331.5,-148.3 -331.5,-331.5 0,-183.2 148.4,-331.5 331.5,-331.5"
         style="fill:#bfbfbf;fill-opacity:1;fill-rule:nonzero;stroke:none"
         transform="matrix(0.13333333,0,0,-0.13333333,0,2829.3333)" />
      <path
         id="path16"
         d="m 16904.3,13596.5 h 1657.3 c 183,0 331.4,148.3 331.4,331.5 0,183.2 -148.4,331.4 -331.4,331.4 h -1657.3 c -183.1,0 -331.5,-148.2 -331.5,-331.4 0,-183.2 148.4,-331.5 331.5,-331.5"
         style="fill:#bfbfbf;fill-opacity:1;fill-rule:nonzero;stroke:none"
         transform="matrix(0.13333333,0,0,-0.13333333,0,2829.3333)" />
      <path
         id="path17"
         d="m 16904.3,11607.8 h 1657.3 c 183,0 331.4,148.2 331.4,331.4 0,183.2 -148.4,331.5 -331.4,331.5 h -1657.3 c -183.1,0 -331.5,-148.3 -331.5,-331.5 0,-183.2 148.4,-331.4 331.5,-331.4"
         style="fill:#bfbfbf;fill-opacity:1;fill-rule:nonzero;stroke:none"
         transform="matrix(0.13333333,0,0,-0.13333333,0,2829.3333)" />
      <path
         id="path18"
         d="m 16904.3,9619 h 1657.3 c 183,0 331.4,148.3 331.4,331.5 0,183.2 -148.4,331.4 -331.4,331.4 h -1657.3 c -183.1,0 -331.5,-148.2 -331.5,-331.4 0,-183.2 148.4,-331.5 331.5,-331.5"
         style="fill:#bfbfbf;fill-opacity:1;fill-rule:nonzero;stroke:none"
         transform="matrix(0.13333333,0,0,-0.13333333,0,2829.3333)" />
      <path
         id="path19"
         d="M 4308.93,9619 H 2651.65 c -183.03,0 -331.46,-148.2 -331.46,-331.4 0,-183.2 148.43,-331.5 331.46,-331.5 h 1657.28 c 183.03,0 331.46,148.3 331.46,331.5 0,183.2 -148.43,331.4 -331.46,331.4"
         style="fill:#bfbfbf;fill-opacity:1;fill-rule:nonzero;stroke:none"
         transform="matrix(0.13333333,0,0,-0.13333333,0,2829.3333)" />
      <path
         id="path20"
         d="M 4308.93,7630.3 H 2651.65 c -183.03,0 -331.46,-148.3 -331.46,-331.5 0,-183.2 148.43,-331.4 331.46,-331.4 h 1657.28 c 183.03,0 331.46,148.2 331.46,331.4 0,183.2 -148.43,331.5 -331.46,331.5"
         style="fill:#bfbfbf;fill-opacity:1;fill-rule:nonzero;stroke:none"
         transform="matrix(0.13333333,0,0,-0.13333333,0,2829.3333)" />
      <path
         id="path21"
         d="M 4308.93,5641.6 H 2651.65 c -183.03,0 -331.46,-148.3 -331.46,-331.5 0,-183.2 148.43,-331.5 331.46,-331.5 h 1657.28 c 183.03,0 331.46,148.3 331.46,331.5 0,183.2 -148.43,331.5 -331.46,331.5"
         style="fill:#bfbfbf;fill-opacity:1;fill-rule:nonzero;stroke:none"
         transform="matrix(0.13333333,0,0,-0.13333333,0,2829.3333)" />
      <path
         id="path22"
         d="M 4308.93,3652.8 H 2651.65 c -183.03,0 -331.46,-148.2 -331.46,-331.4 0,-183.2 148.43,-331.5 331.46,-331.5 h 1657.28 c 183.03,0 331.46,148.3 331.46,331.5 0,183.2 -148.43,331.4 -331.46,331.4"
         style="fill:#bfbfbf;fill-opacity:1;fill-rule:nonzero;stroke:none"
         transform="matrix(0.13333333,0,0,-0.13333333,0,2829.3333)" />
    </g>
  </g>
</svg>
